<svg xmlns="http://www.w3.org/2000/svg" xmlns:xlink="http://www.w3.org/1999/xlink" width="4167.563" height="3559.566" viewBox="0 0 4167.563 3559.566">
  <defs>
    <clipPath id="clip-path">
      <path id="Trazado_9365" data-name="Trazado 9365" d="M0,0,2405.594-103.187,3526.146,0V2223.3H0Z" fill="#ff0"/>
    </clipPath>
    <clipPath id="clip-path-2">
      <path id="Trazado_3443" data-name="Trazado 3443" d="M1517.911,342.939l118.965,331.637,98.521,28.891,18.724,85.095,39.291,19.72,17.066,38.331,40.779,117.08s-61.859,44.592-33.827,30.248,147.247-160.226,147.247-160.226V613.369l-10.365-33.681-22.523-35.4-15.7-92.347,27.66-176.137ZM60.779,1902.584v-615.4l33.45,19.831v25.921l43.6,12.8,31.4-38.725,291.446-49.851L551.4,1083.654l26.438-3.638,54.406-187.862,28.434-11.319L753.248,628.22H687.933l-19.01-226.642L60.779,376.523V58.317L2077.974-163,3134.562,58.317l-201.211,123.77,146.131,278.354.042,186.528-68.993,111.876,77.586,174.261,46.444,562.124-61.068-22.592-19.462-302.147-147.6,114.543-13.625-4.246,94.722-124.853h-17.875l-51.437,70.544-12.809-10.5,16.7-60.045-29.3-12.241v-47.439l-139.344-56.3h-58.145l-31.768-71.926,5.279-126.591L2393.677,363.978H2193.73l-153.49,141.953-38.859,621.059-243.439,54.5-66.016-38.513-37.651,3.177-31.715,230.659-122.434,41.579-37.66,136.679-73.208,148.616-14.395-7.788,9.12-150.41-39.394,35.244h-23.874v-35.244h-30.892L1335.06,1668.7l37.808,102.966-37.342-2.13-120.915-145.661-7.7,1.176-31.6,13.68-30.347,120.09-149.506,15.653L943.5,1902.584Z" transform="translate(-60.779 -58.317)" fill="#ff87" stroke="#000" stroke-width="4"/>
    </clipPath>
    <clipPath id="clip-path-3">
      <path id="Trazado_3444" data-name="Trazado 3444" d="M390.792,232.845l6.6-26.553v-80.8l27.083-37.4,18.267,20.974,55,78.644V277.3l-64.96,8.368Z" transform="translate(-390.792 -88.088)" fill="#ff0"/>
    </clipPath>
    <clipPath id="clip-path-4">
      <path id="Trazado_3445" data-name="Trazado 3445" d="M392.679,193.274,380.3,185.51l12.379-28.863,14.376,16.041v20.587Z" transform="translate(-380.299 -156.647)" fill="#ff0"/>
    </clipPath>
    <clipPath id="clip-path-5">
      <path id="Trazado_3446" data-name="Trazado 3446" d="M397.3,208.871l-26.571-16.663,26.571-61.94,30.85,34.419v44.184Z" transform="translate(-370.724 -130.268)" fill="#ff0"/>
    </clipPath>
    <clipPath id="clip-path-6">
      <path id="Trazado_3450" data-name="Trazado 3450" d="M433.683,216.615l7.548-13.034,5.911-.06,3.716,21.384-9.4,2.351Z" transform="translate(-433.683 -203.521)" fill="#ff0"/>
    </clipPath>
    <clipPath id="clip-path-7">
      <path id="Trazado_3451" data-name="Trazado 3451" d="M438.415,215.333l2.877-4.966,2.25-.023,1.416,8.142-3.578.895Z" transform="translate(-438.415 -210.344)" fill="#ff0"/>
    </clipPath>
    <clipPath id="clip-path-8">
      <rect id="Rectángulo_64" data-name="Rectángulo 64" width="3073.783" height="1844.272" fill="#ff0"/>
    </clipPath>
  </defs>
  <g id="Grupo_769" data-name="Grupo 769" transform="matrix(0.914, 0.407, -0.407, 0.914, 904.298, 94.266)" style="isolation: isolate">
    <g id="Enmascarar_grupo_8" data-name="Enmascarar grupo 8" clip-path="url(#clip-path)">
      <g id="Grupo_78" data-name="Grupo 78" transform="translate(280.232 110.154)">
        <g id="Grupo_77" data-name="Grupo 77" clip-path="url(#clip-path-2)">
          <path id="Trazado_8530" data-name="Trazado 8530" d="M0,0H1850.633l-47.154,2931.4,47.154,146.2-93.089,58.964-327.583-113.716-244.112,74.812L0,3077.6-159.188,2188.7l84.343-185.2-108.644-975.02L-24.38,539.537Z" transform="matrix(0.002, 1, -1, 0.002, 3073.769, -6.369)" fill="#ff0"/>
        </g>
      </g>
      <g id="Grupo_80" data-name="Grupo 80" transform="translate(1801.817 1619.575)">
        <g id="Grupo_79" data-name="Grupo 79" clip-path="url(#clip-path-3)">
          <rect id="Rectángulo_52" data-name="Rectángulo 52" width="202.249" height="115.844" transform="translate(106.732 -4.867) rotate(87.389)" fill="#ff0"/>
        </g>
      </g>
      <g id="Grupo_82" data-name="Grupo 82" transform="translate(1753.437 1464.426)">
        <g id="Grupo_81" data-name="Grupo 81" clip-path="url(#clip-path-4)">
          <rect id="Rectángulo_53" data-name="Rectángulo 53" width="37.808" height="28.396" transform="translate(26.7 -1.218) rotate(87.389)" fill="#ff0"/>
        </g>
      </g>
      <g id="Grupo_84" data-name="Grupo 84" transform="translate(1709.29 1544.075)">
        <g id="Grupo_83" data-name="Grupo 83" clip-path="url(#clip-path-5)">
          <rect id="Rectángulo_54" data-name="Rectángulo 54" width="81.137" height="60.943" transform="translate(57.302 -2.613) rotate(87.389)" fill="#ff0"/>
        </g>
      </g>
      <g id="Grupo_92" data-name="Grupo 92" transform="translate(1999.573 1261.196)">
        <g id="Grupo_91" data-name="Grupo 91" clip-path="url(#clip-path-6)">
          <rect id="Rectángulo_58" data-name="Rectángulo 58" width="24.647" height="18.457" transform="translate(17.122 -0.946) rotate(86.839)" fill="#ff0"/>
        </g>
      </g>
      <g id="Grupo_94" data-name="Grupo 94" transform="translate(2021.391 1244.436)">
        <g id="Grupo_93" data-name="Grupo 93" clip-path="url(#clip-path-7)">
          <rect id="Rectángulo_59" data-name="Rectángulo 59" width="9.384" height="7.031" transform="translate(6.523 -0.36) rotate(86.838)" fill="#ff0"/>
        </g>
      </g>
    </g>
  </g>
</svg>
