<svg xmlns="http://www.w3.org/2000/svg" width="197.681" height="92.062" viewBox="0 0 197.681 92.062">
  <g id="Trazado_11664" data-name="Trazado 11664" transform="translate(0 3.598)" fill="#80f100">
    <path d="M 163.2634887695312 87.46411895751953 L 43.43709945678711 87.46411895751953 C 37.68525695800781 87.46411895751953 32.10723114013672 86.53814697265625 26.85799407958984 84.71193695068359 C 21.79749488830566 82.95138549804688 17.25531005859375 80.43314361572266 13.35767841339111 77.22722625732422 C 9.474363327026367 74.03306579589844 6.427863121032715 70.31812286376953 4.302810668945312 66.18553924560547 C 2.111231565475464 61.9235954284668 0.9999946355819702 57.3984375 0.9999946355819702 52.73575210571289 C 0.9999946355819702 46.37390899658203 2.621705293655396 40.65983200073242 5.820126056671143 35.75225067138672 C 8.818231582641602 31.15201568603516 13.22270488739014 27.21541023254395 18.91120529174805 24.05177879333496 C 24.30052185058594 21.05454254150391 30.81473159790039 18.7601203918457 38.27291488647461 17.23225212097168 C 45.397705078125 15.77267360687256 53.26868057250977 15.03259468078613 61.66720581054688 15.03259468078613 L 61.70654678344727 15.03259468078613 L 61.74578475952148 15.02951526641846 C 69.51544189453125 14.41706848144531 75.05541229248047 13.37764739990234 78.68222808837891 11.85177898406982 C 81.98065185546875 10.46406841278076 83.26551818847656 8.894330978393555 84.39915466308594 7.509357929229736 C 85.22852325439453 6.496120929718018 85.88359832763672 5.695805072784424 87.26246643066406 5.071910381317139 C 88.902099609375 4.330015659332275 91.35049438476562 3.941094636917114 94.96773529052734 3.847989320755005 C 102.3259963989258 3.658463001251221 112.8459701538086 2.30459451675415 123.9836502075195 0.8712261319160461 C 137.2355194091797 -0.8342475295066833 150.9385681152344 -2.597773790359497 160.7561492919922 -2.597773790359497 C 165.6705474853516 -2.597773790359497 169.2265167236328 -2.140931844711304 171.3252258300781 -1.240010738372803 C 179.693603515625 2.349515676498413 184.5724487304688 5.554805278778076 187.63916015625 9.477805137634277 C 190.6004943847656 13.26598930358887 191.9167633056641 17.76022529602051 193.7385406494141 23.98048973083496 C 194.1111297607422 25.25251579284668 194.4963684082031 26.56785774230957 194.9239959716797 27.97622680664062 C 195.9988403320312 31.51591110229492 196.5863647460938 35.40909576416016 196.6702880859375 39.54762268066406 C 196.7514190673828 43.54764556884766 196.3621063232422 47.69022750854492 195.51318359375 51.86030578613281 C 193.8234710693359 60.16075134277344 190.3619995117188 68.14549255371094 185.7664489746094 74.34367370605469 C 182.7360992431641 78.43083190917969 179.3235168457031 81.63780212402344 175.6234741210938 83.87556457519531 C 171.6862335205078 86.25675201416016 167.5277252197266 87.46411895751953 163.2634887695312 87.46411895751953 Z" stroke="none"/>
    <path d="M 160.7561645507812 -1.5977783203125 C 151.002685546875 -1.5977783203125 137.3319702148438 0.1615829467773438 124.1113586425781 1.863029479980469 C 112.9475555419922 3.299774169921875 102.4028854370117 4.656829833984375 94.99346923828125 4.847663879394531 C 91.56185913085938 4.935997009277344 89.16788482666016 5.307357788085938 87.67472076416016 5.98297119140625 C 86.50914001464844 6.510360717773438 85.94869232177734 7.195083618164062 85.17299652099609 8.142745971679688 C 84.02541351318359 9.544723510742188 82.59724426269531 11.28955078125 79.07002258300781 12.77349853515625 C 75.34324645996094 14.34141540527344 69.70213317871094 15.40544128417969 61.82435607910156 16.02639007568359 L 61.74588012695312 16.03258514404297 L 61.66719055175781 16.03258514404297 C 53.3359375 16.03258514404297 45.532470703125 16.76580047607422 38.47360229492188 18.21188735961914 C 31.11549377441406 19.71927642822266 24.69728088378906 21.97810745239258 19.39724731445312 24.92572021484375 C 13.85238647460938 28.00944137573242 9.566253662109375 31.83572006225586 6.657882690429688 36.29827499389648 C 3.567138671875 41.04066467285156 2 46.57105255126953 2 52.73574829101562 C 2 57.23783111572266 3.073974609375 61.60913848876953 5.192108154296875 65.72824859619141 C 7.254501342773438 69.73891448974609 10.21549987792969 73.34788513183594 13.992919921875 76.45491790771484 C 17.79902648925781 79.58555603027344 22.23802185058594 82.04586029052734 27.18658447265625 83.76747131347656 C 32.32991027832031 85.55686187744141 37.79736328125 86.46413421630859 43.43708801269531 86.46413421630859 L 163.2634887695312 86.46413421630859 C 167.3426971435547 86.46413421630859 171.3270874023438 85.30532836914062 175.1059417724609 83.01988983154297 C 178.6941986083984 80.84977722167969 182.0106048583984 77.73030090332031 184.963134765625 73.74810791015625 C 189.473388671875 67.66500091552734 192.8721313476562 59.82091522216797 194.5332794189453 51.66083145141602 C 195.3674926757812 47.56294250488281 195.7501068115234 43.4942741394043 195.6705017089844 39.56788635253906 C 195.5884399414062 35.52099990844727 195.0153350830078 31.71877670288086 193.9671325683594 28.26677703857422 C 193.5380554199219 26.85366439819336 193.1521148681641 25.53591537475586 192.7788543701172 24.26152420043945 C 190.9883270263672 18.14802551269531 189.6946716308594 13.73091125488281 186.8513031005859 10.09363555908203 C 183.8953094482422 6.312278747558594 179.1341857910156 3.197662353515625 170.9307708740234 -0.3211135864257812 C 168.9574127197266 -1.168251037597656 165.5341644287109 -1.5977783203125 160.7561645507812 -1.5977783203125 M 160.7561645507812 -3.5977783203125 C 165.4981994628906 -3.5977783203125 169.324462890625 -3.187164306640625 171.7197265625 -2.158920288085938 C 191.0891876220703 6.149383544921875 191.1659698486328 12.15841674804688 195.880859375 27.68566513061523 C 203.2248840332031 51.87141418457031 187.2531433105469 88.46413421630859 163.2634887695312 88.46413421630859 L 43.43708801269531 88.46413421630859 C 19.44744873046875 88.46413421630859 0 72.46800231933594 0 52.73574829101562 C 0 25.51885986328125 28.57804870605469 14.03258514404297 61.66719055175781 14.03258514404297 C 92.52082824707031 11.60063934326172 76.41455078125 3.325218200683594 94.94200134277344 2.84832763671875 C 110.9540863037109 2.435905456542969 142.5797119140625 -3.5977783203125 160.7561645507812 -3.5977783203125 Z" stroke="none" fill="#000"/>
  </g>
</svg>
