<svg xmlns="http://www.w3.org/2000/svg" width="200.33" height="89.906" viewBox="0 0 200.33 89.906">
  <g id="Trazado_11666" data-name="Trazado 11666" transform="translate(0 2.392)" fill="#fe0">
    <path d="M 40.02101516723633 86.01374053955078 C 32.92035675048828 86.01374053955078 27.74627685546875 85.29064178466797 24.20306777954102 83.80316162109375 C 18.11540985107422 81.24745178222656 12.52151489257812 76.32950592041016 8.45182991027832 69.95526885986328 C 3.903909206390381 62.83198165893555 1.500014543533325 54.31411361694336 1.500014543533325 45.32253265380859 C 1.500014543533325 22.39779663085938 15.62190914154053 3.747164487838745 32.98006820678711 3.747164487838745 L 33.01396179199219 3.747164487838745 L 33.04780578613281 3.745638132095337 C 33.90496063232422 3.706874847412109 119.198616027832 -0.1381513774394989 156.9763336181641 -0.8726513981819153 C 157.6304931640625 -0.885361909866333 158.2792053222656 -0.8918092846870422 158.9044952392578 -0.8918092846870422 C 164.5998077392578 -0.8918092846870422 169.1017761230469 -0.3743355870246887 172.6676940917969 0.6902170181274414 C 175.8509063720703 1.640506505966187 178.3009338378906 3.041927576065063 180.1577758789062 4.974532604217529 C 183.7580718994141 8.721769332885742 184.9872741699219 14.24105930328369 186.5435180664062 21.2287425994873 C 188.0876159667969 28.16208457946777 190.0093536376953 36.79084777832031 195.0649871826172 46.04187393188477 C 197.0119323730469 49.6044807434082 198.2176208496094 53.27582168579102 198.6485137939453 56.95387649536133 C 199.0373229980469 60.27263641357422 198.7991485595703 63.60116577148438 197.9405975341797 66.84700775146484 C 197.1586456298828 69.80316162109375 195.8820953369141 72.63566589355469 194.1464080810547 75.26579284667969 C 192.5641479492188 77.66339874267578 190.6000366210938 79.86148071289062 188.4663543701172 81.62239837646484 C 187.7158508300781 82.2427978515625 185.24267578125 83.38877105712891 177.1013031005859 84.10189819335938 C 171.5320129394531 84.58974456787109 164.0448303222656 84.826904296875 154.2119140625 84.82698059082031 C 143.1429901123047 84.82705688476562 130.4950408935547 84.52790069580078 118.2635116577148 84.23860931396484 C 106.0524368286133 83.94976806640625 94.51853942871094 83.67697906494141 84.42985534667969 83.67697906494141 C 83.37296295166016 83.67697906494141 82.33701324462891 83.68008422851562 81.35080718994141 83.68624114990234 C 75.05469512939453 83.72560882568359 67.92932891845703 84.29640197753906 61.03856658935547 84.84842681884766 C 53.88701629638672 85.42132568359375 46.49201583862305 86.01374053955078 40.02101516723633 86.01374053955078 Z" stroke="none"/>
    <path d="M 158.9044647216797 0.6081771850585938 C 158.2888488769531 0.6081771850585938 157.6499328613281 0.6145401000976562 157.0054626464844 0.6270675659179688 C 119.2471618652344 1.361183166503906 33.97248840332031 5.205375671386719 33.11555480957031 5.244125366210938 L 33.04782104492188 5.247177124023438 L 32.98005676269531 5.247177124023438 C 29.04104614257812 5.247177124023438 25.21002197265625 6.260238647460938 21.5933837890625 8.258209228515625 C 18.03085327148438 10.22626495361328 14.81715393066406 13.06226348876953 12.0416259765625 16.68740081787109 C 9.220687866210938 20.37184906005859 7.00152587890625 24.67584609985352 5.44580078125 29.47990417480469 C 3.8228759765625 34.49143218994141 3 39.82168197631836 3 45.32251358032227 C 3 54.02754211425781 5.3223876953125 62.26628875732422 9.716110229492188 69.1480712890625 C 13.62332153320312 75.267822265625 18.97441101074219 79.98123931884766 24.78372192382812 82.42006683349609 C 28.13946533203125 83.82890319824219 33.1236572265625 84.51373291015625 40.02105712890625 84.51373291015625 C 46.43208312988281 84.51373291015625 53.79673767089844 83.92376708984375 60.91891479492188 83.35321044921875 C 67.83671569824219 82.79901123046875 74.99008178710938 82.22598266601562 81.34140777587891 82.18626403808594 C 82.32979583740234 82.18009948730469 83.36882781982422 82.17695617675781 84.42963409423828 82.17695617675781 C 94.53688049316406 82.17695617675781 106.0804138183594 82.44998931884766 118.3017196655273 82.739013671875 C 130.5235748291016 83.02809906005859 143.1615753173828 83.32698822021484 154.2119140625 83.32698822021484 C 164.0003814697266 83.32698822021484 171.4447479248047 83.09170532226562 176.9703826904297 82.60765075683594 C 185.4336547851562 81.86631774902344 187.2346801757812 80.69440460205078 187.5115814208984 80.46551513671875 C 189.5318298339844 78.79817962646484 191.3931884765625 76.71446228027344 192.8944396972656 74.43959808349609 C 194.5403289794922 71.94554138183594 195.7502136230469 69.261962890625 196.4904632568359 66.46343231201172 C 197.3006896972656 63.40026473999023 197.5255279541016 60.25951385498047 197.15869140625 57.12840270996094 C 196.7502746582031 53.64226531982422 195.6029968261719 50.15423583984375 193.7487182617188 46.76118087768555 C 188.5913238525391 37.3239860534668 186.64404296875 28.58040237426758 185.0793609619141 21.55481719970703 C 183.5741577148438 14.79629516601562 182.3852691650391 9.457984924316406 179.0761108398438 6.013763427734375 C 177.4035186767578 4.272956848144531 175.1669616699219 3.001739501953125 172.2385864257812 2.127540588378906 C 168.8139343261719 1.105155944824219 164.4523315429688 0.6081771850585938 158.9044647216797 0.6081771850585938 M 158.9044647216797 -2.391822814941406 C 194.7044067382812 -2.391822814941406 181.4587707519531 18.01674652099609 196.3812408447266 45.32251358032227 C 204.9537658691406 61.00893020629883 198.1539916992188 75.57201385498047 189.4211273193359 82.77928924560547 C 186.0560913085938 85.56085968017578 172.0187225341797 86.32698822021484 154.2118988037109 86.32698822021484 C 131.2776184082031 86.32698822021484 102.0875701904297 85.05690765380859 81.36016082763672 85.18621063232422 C 68.60939025878906 85.26591491699219 52.81294250488281 87.51374053955078 40.02104187011719 87.51374053955078 C 33.51081848144531 87.51374053955078 27.78103637695312 86.93206787109375 23.6224365234375 85.18621063232422 C 11.2926025390625 80.00993347167969 0 65.18704223632812 0 45.32251358032227 C 0 21.53265380859375 14.76565551757812 2.247177124023438 32.98005676269531 2.247177124023438 C 32.98005676269531 2.247177124023438 118.7128295898438 -1.628982543945312 156.9471588134766 -2.37237548828125 C 157.6145782470703 -2.385353088378906 158.2684326171875 -2.391822814941406 158.9044647216797 -2.391822814941406 Z" stroke="none" fill="#000"/>
  </g>
</svg>
