<svg xmlns="http://www.w3.org/2000/svg" width="185.141" height="97.112" viewBox="0 0 185.141 97.112">
  <g id="Trazado_11665" data-name="Trazado 11665" transform="translate(-23.414 1.49)" fill="#ff3ec2">
    <path d="M 99.5738525390625 94.62186431884766 C 99.57317352294922 94.62186431884766 99.57352447509766 94.62186431884766 99.57285308837891 94.62186431884766 C 93.68547821044922 94.62178802490234 88.09235382080078 94.15458679199219 82.47383117675781 93.19351196289062 C 76.22237396240234 92.12416076660156 70.04777526855469 90.46723937988281 63.59720230102539 88.12803649902344 C 46.40250396728516 81.89263916015625 36.27275085449219 75.23249053955078 30.75225257873535 66.53303527832031 C 28.20772743225098 62.52328872680664 26.56710243225098 58.03911209106445 25.58905220031738 52.42108917236328 C 24.76512718200684 47.68831253051758 24.41357803344727 42.2958869934082 24.41357803344727 34.39016342163086 C 24.41357803344727 29.82761192321777 25.8306770324707 25.32261276245117 28.62552833557129 21.00026321411133 C 29.94995307922363 18.95201301574707 31.58270263671875 16.95778846740723 33.47840118408203 15.07303810119629 C 35.33495330810547 13.22721290588379 37.45277786254883 11.47693729400635 39.77305221557617 9.87081241607666 C 44.35520172119141 6.699012756347656 49.76617813110352 4.079062461853027 55.42105102539062 2.294187784194946 C 61.19225311279297 0.4726126790046692 67.26628112792969 -0.4902123212814331 72.98648071289062 -0.4902123212814331 L 169.5205078125 -0.4902123212814331 C 175.497802734375 -0.4902123212814331 179.2318572998047 0.9515126943588257 181.2717742919922 4.046962738037109 C 183.1470031738281 6.892512798309326 183.5225219726562 10.98183727264404 183.9200744628906 15.31123733520508 C 184.5305328369141 21.95881271362305 185.2223968505859 29.49331283569336 191.4114990234375 35.12951278686523 C 193.9233703613281 37.41701126098633 196.2320556640625 39.34866333007812 198.2689208984375 41.05288696289062 C 202.7797088623047 44.8270378112793 206.0388336181641 47.55388641357422 207.1320037841797 50.5405387878418 C 207.6713562011719 52.0140380859375 207.6954956054688 53.54493713378906 207.2080230712891 55.3583869934082 C 206.6854248046875 57.30258941650391 205.5447845458984 59.61968612670898 203.720947265625 62.44201278686523 C 199.4279022216797 69.08543395996094 195.2936096191406 74.93888854980469 188.1571044921875 79.29243469238281 C 184.531982421875 81.50393676757812 180.2621765136719 83.26248931884766 175.1037292480469 84.66856384277344 C 169.5765075683594 86.17516326904297 163.006103515625 87.28873443603516 155.0170288085938 88.07291412353516 C 146.9441223144531 88.86534118652344 139.4552001953125 90.05271148681641 132.2128601074219 91.20098876953125 C 121.1175537109375 92.96015167236328 110.6365280151367 94.62186431884766 99.5738525390625 94.62186431884766 Z" stroke="none"/>
    <path d="M 99.57387542724609 93.62186431884766 C 110.5576553344727 93.62186431884766 121.0005035400391 91.96616363525391 132.0565032958984 90.21326446533203 C 139.3133544921875 89.06271362304688 146.8172454833984 87.87298583984375 154.9193572998047 87.07771301269531 C 162.8519287109375 86.29906463623047 169.3682708740234 85.1954345703125 174.8407287597656 83.70376586914062 C 179.9071502685547 82.32276153564453 184.0926208496094 80.60056304931641 187.6363220214844 78.43876647949219 C 194.5924072265625 74.19523620605469 198.6558837890625 68.43769073486328 202.8810577392578 61.89926147460938 C 204.6476287841797 59.16556167602539 205.7471008300781 56.94111251831055 206.2423248291016 55.09878921508789 C 206.6737060546875 53.49401092529297 206.6580047607422 52.15483856201172 206.1929473876953 50.88426208496094 C 205.1917724609375 48.1490364074707 202.018798828125 45.49423599243164 197.6272277832031 41.81983947753906 C 195.5828094482422 40.10928726196289 193.2656097412109 38.17051315307617 190.7381744384766 35.86888885498047 C 184.2620849609375 29.9713134765625 183.5513458251953 22.23143768310547 182.9242706298828 15.40268802642822 C 182.5384979248047 11.20161247253418 182.1741333007812 7.233512878417969 180.4367828369141 4.597237586975098 C 179.2804565429688 2.842562675476074 176.8907470703125 0.5097876787185669 169.5205078125 0.5097876787185669 L 72.98648071289062 0.5097876787185669 C 67.36705017089844 0.5097876787185669 61.39712905883789 1.456587672233582 55.72205352783203 3.247812747955322 C 50.161376953125 5.002962589263916 44.8431282043457 7.577462673187256 40.34220123291016 10.69303798675537 C 38.07035446166992 12.26563739776611 35.99825286865234 13.9778881072998 34.18345260620117 15.78218746185303 C 32.33837890625 17.61661338806152 30.75095176696777 19.55491256713867 29.46527671813965 21.54326248168945 C 26.77677726745605 25.70113754272461 25.41357803344727 30.02346229553223 25.41357803344727 34.39016342163086 C 25.41357803344727 42.23533630371094 25.76067733764648 47.57646179199219 26.57422828674316 52.24956130981445 C 27.52897834777832 57.73376083374023 29.12485313415527 62.10218811035156 31.59660339355469 65.99723815917969 C 36.99070358276367 74.49751281738281 46.96517944335938 81.032958984375 63.93812942504883 87.18793487548828 C 70.33207702636719 89.50661468505859 76.45032501220703 91.14863586425781 82.64242553710938 92.20780944824219 C 88.20462799072266 93.15926361083984 93.74259948730469 93.62178802490234 99.57334899902344 93.62186431884766 L 99.57387542724609 93.62186431884766 M 99.57283782958984 95.62185668945312 C 88.45967864990234 95.62174224853516 76.74453735351562 93.95944213867188 63.25630187988281 89.06813812255859 C 27.45087814331055 76.08383941650391 23.41357803344727 61.61366271972656 23.41357803344727 34.39016342163086 C 23.41357803344727 14.65311241149902 48.99680328369141 -1.490212321281433 72.98648071289062 -1.490212321281433 L 169.5205078125 -1.490212321281433 C 193.5101776123047 -1.490212321281433 178.1058349609375 21.65998840332031 192.0848083496094 34.39016342163086 C 206.0637512207031 47.12031173706055 213.7373809814453 48.78426361083984 204.5608520507812 62.98476409912109 C 195.3843536376953 77.18526458740234 187.8648529052734 85.85346221923828 155.1147308349609 89.06813812255859 C 134.7018432617188 91.07183074951172 117.9603271484375 95.62204742431641 99.57283782958984 95.62185668945312 Z" stroke="none" fill="#000"/>
  </g>
</svg>
